<svg id="レイヤー_1" data-name="レイヤー 1" xmlns="http://www.w3.org/2000/svg" viewBox="0 0 600 600"><defs><style>.cls-1{fill:#ffc28a;}.cls-2{fill:#fff;}</style></defs><path class="cls-1" d="M259.76,471.65c-15.41-2.16-31-3.34-46.13-6.89-7.34-1.73-14.3-7.11-20.27-12.19-11.39-9.69-21.8-20.52-32.94-30.52-4.83-4.32-7-8.6-3.89-14.77,6.7-13.39,12.44-27.36,20.28-40,3.7-6,10.85-10.46,17.38-13.73,4-2,9.83-.63,14.81-.36,2.06.11,4,1.38,6.09,2,8.86,2.57,9.36,2.7,6.83,11.24-1.46,4.92.27,8,4,8.81a278.48,278.48,0,0,0,29.21,4.11c1.26.12,2.82-3,4.25-4.57-2.81-1.93-5.48-5.18-8.45-5.49-4.3-.44-8.8,1.68-13.26,1.88-3.94.17-5.1-2.61-1.82-4.87,4.78-3.28,9.93-6.82,15.43-8.09a70.27,70.27,0,0,0,28.82-13.68c7.11-5.71,14.47-11.12,21.64-16.76,6.37-5,7.79-11,7.79-19.55,0-25.1-19.58-33.21-35.89-43.57-10.85-6.9-23.48-9.09-37.09-5.66-5.48,1.38-12.41-2.21-18.43-4.26-1.4-.48-2.6-4-2.51-6,1-25,5.29-49.53,20.33-70.16,13.11-18,27.47-35.59,49.29-43.8,10.48-3.94,22.2-4.65,32.55-8.82,8.84-3.56,15.69-2.34,23,2.57,21.32,14.39,44.14,27,63.73,43.43,25.7,21.58,43.61,49.5,51.57,82.74,2.93,12.24,4.67,24.76,6.88,37.17,4.06,22.79-3.09,43.58-11.61,64.09C444,373.59,435.1,390.34,421.2,404c-27.75,27.31-59.52,46.24-99.19,50.64-13.76,1.53-27.24,5.94-40.69,9.59-3.68,1-6.59,4.68-10.26,5.88-3.45,1.12-7.45.58-11.2.78C259.83,471.15,259.8,471.4,259.76,471.65Zm95.5-69c12.45-.57,20.41-4.66,25.56-12.72,2.68-4.2,2.49-8-1.5-10.4-3.55-2.15-7.65-2.26-10.42,2.27-5.33,8.72-13.52,10.73-23,9.45-2.93-.39-5.86-.73-8.81-.9-10.42-.58-18.69,4.31-20.37,11.94-1.44,6.58,4.81,15.24,13.56,18.81a23.9,23.9,0,0,0,2.26.87c4.63,1.3,9.22,3,14,3.69,2.76.4,5.75-.89,8.64-1.42-1.72-2.75-3.07-5.88-5.32-8.08-1.18-1.15-4-.65-6-.92-2.9-.39-6-.32-8.63-1.38-1.91-.77-4.59-3.15-4.48-4.62.18-2.14,2.16-5.23,4.08-5.9,3.65-1.27,7.79-1.34,11.74-1.47A68.35,68.35,0,0,1,355.26,402.62Zm26.18-78.91c.24.76.48,1.52.71,2.28l5.36-2.36a47.41,47.41,0,0,0-3.12-5c-1.81-2.22-4.05-4.1-5.79-6.38-4.58-6-8.85-6.14-14.52-1-2.86,2.61-6.3,5.23-9.92,6.23-6.48,1.8-11.77-.37-15.7-6.52-2.26-3.54-6.7-6.85-10.84-3.32-4,3.38-1.29,7.92,1,11.58.66,1.05,2.06,1.66,3.18,2.39,10.19,6.74,21.35,7.95,33.08,5.66C370.42,326.2,375.92,324.91,381.44,323.71Zm-9.38-49.1c-1.41.93-5.73,2.31-7.17,5.14-1.71,3.39,7.54,9.84,13.34,10,5,.15,5.42-3.17,5.63-6.79C384.12,278.41,380,274.82,372.06,274.61Zm-43.16-9.73c-.61.78-3,2.43-3.07,4.17-.23,6.54,5.4,7.34,9.95,8.09,1.54.25,4.79-2.4,5.18-4.18C341.83,269,336.36,265,328.9,264.88Z"/><path class="cls-2" d="M200.34,242c-12.52-13-16.83-27.85-14.45-44.14,4.35-29.77,12.5-58.34,32.91-81.68,10.25-11.72,21.92-22.35,38.7-21.74,9.73.35,19.68,2.71,28.93,5.9,10.44,3.59,20.21,9.12,30.5,15.25C243.48,126,207.8,170.1,200.34,242Z"/><path class="cls-2" d="M236.31,498.61c-10.44-2.24-21-4-31.3-6.86-13.61-3.82-27.3-7.73-40.37-13-20.94-8.5-22.17-29.76-15.92-47,1.44-4,4.08-2.51,6.25-.48,7,6.6,14.56,12.78,20.89,20,14.73,16.84,33.46,24.27,55.25,25.84,8.81.63,17.56,2.18,26.34,3.29,2.49.31,6,.78,2.86,4C253.73,491,248.51,500.59,236.31,498.61Z"/><path d="M175,492.29c-12.87,3.09-24.06,6-35.39,8.34-3.73.76-7.88.25-11.72-.41-3.09-.53-3.92-2.55-1.21-5.07,8.9-8.29,33.31-11.78,43.91-6.18A44,44,0,0,1,175,492.29Z"/><path d="M195.36,515.19c6.86-4.23,11.46-12,19.94-13.66l1.68,2.63-20.43,12.92Z"/><path d="M193,496.54l-15.35-3.76c.36,3.55,1.69,6.84.59,8.68s-4.6,2-7.12,2.58c-7.84,1.85-15.69,3.68-23.58,5.28-13.34,2.7-25-1.82-35.57-9.34-4.89-3.47-4.41-8.82,1.6-12.16a160,160,0,0,1,24.11-10.75c5.26-1.88,6.78-2.95,2.38-7.69a30.89,30.89,0,0,1-6.88-11.74c-1.21-4-.83-8.68-.48-13,.41-5.31,2.34-10.59,2.17-15.83-.5-15.37,7.4-28.23,11.89-42.06a96.77,96.77,0,0,1,9.83-20.27c10.36-17,27.61-32,58.47-21.47,19.57,6.7,37.45,3.67,53.17-10.62,5.74-5.22,12.6-9.17,18.68-14,10.44-8.36,11.46-21.35,3.27-32-7.05-9.19-16.08-15.7-26.3-20.68-2-1-5.06-1.67-6.85-.83-11.62,5.45-23,1.36-33.69-1.79-16.9-5-32.17-13.65-42.51-28.75-6.79-9.92-11.41-21.26-10.78-33.13,1.68-31.4,10.53-61,29.09-86.63,12.05-16.6,28.21-29,49.76-31.28a85.5,85.5,0,0,1,47,8.35c25.91,12.86,51.26,26.93,76.24,41.53a269.32,269.32,0,0,1,38,27c33.9,28.73,56.25,64.41,63.13,109.07,2.59,16.76,6,33.39,3.05,50.4-5.38,30.87-14.64,60.78-35.63,84.37-19.09,21.45-41.59,39.8-69.87,48.86A247.16,247.16,0,0,1,346,461.2c-14.19,2.95-28.47,5.44-42.71,8.14A34.43,34.43,0,0,0,283,481.42c-5,5.94-10.51,11.52-15.41,17.57-5.8,7.16-12.86,10.21-22,8.45-3.41-.65-6.93-.77-10.38-1.23-3.17-.42-6.89-1.85-5.44,4.05.17.68-.93,2-1.74,2.55C212.45,524,196.68,534.64,176.21,526a16.67,16.67,0,0,1-7.28-6.45c-.47-.79,3-4.47,5.13-6.19,6.4-5.1,13.05-9.89,19.6-14.79C193.45,497.87,193.24,497.2,193,496.54Zm66.74-24.89c0-.25.07-.5.1-.75,3.75-.2,7.75.34,11.2-.78,3.67-1.2,6.58-4.88,10.26-5.88,13.45-3.65,26.93-8.06,40.69-9.59,39.67-4.4,71.44-23.33,99.19-50.64,13.9-13.67,22.79-30.42,30.16-48.14,8.52-20.51,15.67-41.3,11.61-64.09-2.21-12.41-4-24.93-6.88-37.17-8-33.24-25.87-61.16-51.57-82.74-19.59-16.44-42.41-29-63.73-43.43-7.28-4.91-14.13-6.13-23-2.57-10.35,4.17-22.07,4.88-32.55,8.82-21.82,8.21-36.18,25.81-49.29,43.8-15,20.63-19.28,45.13-20.33,70.16-.09,2,1.11,5.55,2.51,6,6,2.05,13,5.64,18.43,4.26,13.61-3.43,26.24-1.24,37.09,5.66C290,275,309.54,283.07,309.57,308.17c0,8.55-1.42,14.55-7.79,19.55-7.17,5.64-14.53,11-21.64,16.76a70.27,70.27,0,0,1-28.82,13.68c-5.5,1.27-10.65,4.81-15.43,8.09-3.28,2.26-2.12,5,1.82,4.87,4.46-.2,9-2.32,13.26-1.88,3,.31,5.64,3.56,8.45,5.49-1.43,1.6-3,4.69-4.25,4.57A278.48,278.48,0,0,1,226,375.19c-3.77-.78-5.5-3.89-4-8.81,2.53-8.54,2-8.67-6.83-11.24-2.06-.6-4-1.87-6.09-2-5-.27-10.8-1.65-14.81.36-6.53,3.27-13.68,7.77-17.38,13.73-7.84,12.67-13.58,26.64-20.28,40-3.08,6.17-.94,10.45,3.89,14.77,11.14,10,21.55,20.83,32.94,30.52,6,5.08,12.93,10.46,20.27,12.19C228.71,468.31,244.35,469.49,259.76,471.65ZM200.34,242c7.46-71.9,43.14-116,116.59-126.41-10.29-6.13-20.06-11.66-30.5-15.25-9.25-3.19-19.2-5.55-28.93-5.9-16.78-.61-28.45,10-38.7,21.74-20.41,23.34-28.56,51.91-32.91,81.68C183.51,214.15,187.82,229,200.34,242Zm36,256.61c12.2,2,17.42-7.64,24-14.3,3.16-3.19-.37-3.66-2.86-4-8.78-1.11-17.53-2.66-26.34-3.29-21.79-1.57-40.52-9-55.25-25.84C169.53,444,162,437.8,155,431.2c-2.17-2-4.81-3.51-6.25.48-6.25,17.28-5,38.54,15.92,47,13.07,5.3,26.76,9.21,40.37,13C215.28,494.62,225.87,496.37,236.31,498.61ZM175,492.29a44,44,0,0,0-4.41-3.32c-10.6-5.6-35-2.11-43.91,6.18-2.71,2.52-1.88,4.54,1.21,5.07,3.84.66,8,1.17,11.72.41C150.92,498.33,162.11,495.38,175,492.29Zm20.38,22.9,1.19,1.89L217,504.16l-1.68-2.63C206.82,503.22,202.22,511,195.36,515.19Z"/><path d="M355.26,402.62a68.35,68.35,0,0,0-8.76-.78c-3.95.13-8.09.2-11.74,1.47-1.92.67-3.9,3.76-4.08,5.9-.11,1.47,2.57,3.85,4.48,4.62,2.64,1.06,5.73,1,8.63,1.38,2,.27,4.82-.23,6,.92,2.25,2.2,3.6,5.33,5.32,8.08-2.89.53-5.88,1.82-8.64,1.42-4.73-.67-9.32-2.39-14-3.69a23.9,23.9,0,0,1-2.26-.87c-8.75-3.57-15-12.23-13.56-18.81,1.68-7.63,9.95-12.52,20.37-11.94,2.95.17,5.88.51,8.81.9,9.5,1.28,17.69-.73,23-9.45,2.77-4.53,6.87-4.42,10.42-2.27,4,2.41,4.18,6.2,1.5,10.4C375.67,398,367.71,402.05,355.26,402.62Z"/><path d="M381.44,323.71c-5.52,1.2-11,2.49-16.56,3.58-11.73,2.29-22.89,1.08-33.08-5.66-1.12-.73-2.52-1.34-3.18-2.39-2.29-3.66-5-8.2-1-11.58,4.14-3.53,8.58-.22,10.84,3.32,3.93,6.15,9.22,8.32,15.7,6.52,3.62-1,7.06-3.62,9.92-6.23,5.67-5.18,9.94-5,14.52,1,1.74,2.28,4,4.16,5.79,6.38a47.41,47.41,0,0,1,3.12,5L382.15,326C381.92,325.23,381.68,324.47,381.44,323.71Z"/><path d="M372.06,274.61c8,.21,12.06,3.8,11.8,8.36-.21,3.62-.63,6.94-5.63,6.79-5.8-.17-15.05-6.62-13.34-10C366.33,276.92,370.65,275.54,372.06,274.61Z"/><path d="M328.9,264.88C336.36,265,341.83,269,341,273c-.39,1.78-3.64,4.43-5.18,4.18-4.55-.75-10.18-1.55-9.95-8.09C325.89,267.31,328.29,265.66,328.9,264.88Z"/></svg>