<svg id="レイヤー_1" data-name="レイヤー 1" xmlns="http://www.w3.org/2000/svg" viewBox="0 0 600 600"><defs><style>.cls-1{fill:#fff;}.cls-2{fill:#ffc28a;}</style></defs><polygon class="cls-1" points="186.97 119.51 291.61 122.82 402.88 135.41 410.83 138.06 403.54 94.34 353.87 78.45 319.43 73.15 283 75.8 241.28 75.8 218.76 72.49 202.86 72.49 194.25 83.75 186.97 119.51"/><polygon class="cls-1" points="176.37 421.53 238.63 432.79 323.4 438.75 377.05 437.42 400.23 429.48 410.83 462.59 410.83 481.8 381.69 497.03 316.78 502.33 239.29 501.01 193.59 482.46 169.75 446.03 176.37 421.53"/><path d="M179.68,329c-1.4-1-2.48-2.26-3.83-2.79-13.18-5.12-18.65-16.37-24.34-28.28-9.68-20.27-9-41.54-8.56-62.95a90.37,90.37,0,0,1,1.42-14.6c1.36-7.22,7.94-11.69,16.42-11.76,8.12-.07,12.18,3.11,14,11.51,1.09,5.07,1.4,10.31,2.52,15.38,1.22,5.58,3,11,4.79,17.68,4-3.83,3.36-7.63,3.14-10.87-.74-11-1.85-21.93-3-32.88a427.11,427.11,0,0,1-1.47-67.86c.87-15.56.31-31.2,1.36-46.73a38.75,38.75,0,0,1,5.62-17c4.47-7.28,12.84-9,20.72-10.39a80.32,80.32,0,0,1,30.89.74C261.43,73,283.91,73.27,306.1,71c29.42-3,57.14,2.47,84.55,11.91C393.82,84,397,85,400.16,86.11c8.71,3,14.31,8.46,16.5,17.86a146.67,146.67,0,0,1,2.66,49.86c-1.83,16.95-1.17,34.29-.2,51.38,1.23,21.65,3.66,43.24,6.08,64.8.54,4.71,3.2,9.19,5,13.75,2.17,5.57,5.09,10.57,5.12,17.22,0,5.28,4.06,10.52,6.2,15.82,3.58,8.83,6.59,17.65,4.09,27.55-.86,3.39-.12,7.34.49,10.93,2.2,12.82-1.63,24.9-4.59,37-1.54,6.31-6.15,10.35-13.3,10.75-7.4.42-14.21-.08-17.95-7.86a21.62,21.62,0,0,0-3.49-5.4,246.83,246.83,0,0,0,5.4,46.73c2.49,11.3,4.33,22.77,5.94,34.23.91,6.43-2.57,11.79-6.2,16.79-6.83,9.4-16.3,14.55-27.52,16.84-4.42.9-8.82,1.95-14.38,3.19l24.54,25.05c-1.7,5.57-5.69,6.7-9.61,7-6.37.44-13,1.16-19.16,0-16.8-3-33.45-6.92-50.13-10.63-4.29-1-7.07-3.14-5.89-8.47.69-3.11.13-6.49.13-10.51H274.36c-1.4,4.41-3.31,9.22-4.4,14.22-1,4.71-3.52,6.4-8.17,6.91-8.21.89-16.39,2.22-24.47,3.87-12.24,2.51-24.38,5.46-36.57,8.19a18.92,18.92,0,0,1-5.36.86c-8.06-.59-10.57-5.4-5.37-11.42s11.29-11.15,17.23-16.4c5.21-4.6,10.76-8.82,17.58-14.37-4.56-1.16-7.42-1.78-10.21-2.62-17.93-5.4-32.52-15.19-42.2-31.7a38.76,38.76,0,0,1-5-24.7c1.5-13,.77-26.2,4.49-39.08,1.9-6.61,1-14,1.76-21,1.65-15.19,3.56-30.36,5.32-45.54C179.33,334.52,179.46,331.79,179.68,329Zm225.7-185.2c-3.07-1-5.64-2-8.25-2.78a36.88,36.88,0,0,0-5.31-1.43c-33.46-5.29-66.56-13.1-100.89-11.6-15.54.68-31.18-.89-46.77-1.46-4.89-.18-9.84,0-14.66-.74-11.3-1.66-22.44-.73-34,.81-.29,2.3-.71,4.36-.81,6.44-1.65,34.62.17,69.08,4,103.51.79,7.13-.16,14.6-1.3,21.76-1.08,6.82-5,10.28-10.82,10.7-6,.43-10.79-1.86-13.7-7.31-4.9-9.21-9.63-18.46-10.28-29.2-.21-3.36-1.14-6.68-1.75-10-2.23,1.44-2.94,2.77-3,4.1-.14,15.89-.24,31.77-.14,47.66a20.78,20.78,0,0,0,1.67,7.12c3.43,8.83,7.14,17.54,10.51,26.39,1.54,4.05,4,6.76,8.22,7.86,2.62.68,5.21,1.5,7.77,2.39,5.17,1.81,9,6.2,8.51,10.53-1.42,12.44-3.34,24.83-4.72,37.28-1.86,16.61-3.39,33.25-5.14,50.6,9.26,2.88,17.79,6.65,26.69,8.06,16.91,2.67,34,5.39,51.07,5.54,27,.24,53.73,3.37,80.57,5.25a110,110,0,0,0,44.34-5.48c9.32-3.24,10.15-5.27,8.75-15.1-3.48-24.42-1.51-48.85.21-73.25.33-4.72,1-9.81,5.71-13.17,7.87,2.79,12.95,7.37,13.72,16.34,1,12.17,2.77,24.29,4.24,36.42.5,4.13.76,8.41,5.73,12.12,1.81-4.15,4-7.48,4.73-11.11,4.16-19.65,6.14-39.57.35-59.08-4.49-15.15-10.81-29.75-16.31-44.59-1-2.58-2.46-5.09-2.79-7.74-2.51-19.7-4.8-39.43-7.12-59.15a26.45,26.45,0,0,1,0-3.67c.3-11.61.7-23.21.88-34.82C405.49,163.49,405.38,154.05,405.38,143.75ZM182.48,429c-.51,6.91-1,12.33-1.31,17.76-.86,13.43,5.22,23.14,15.48,31.39,6.45,5.19,13.81,7.53,21.18,10.4,15.53,6.06,31.39,9.87,48.23,9.32,11.91-.38,23.84,0,35.76-.19,20.47-.43,40.95-.69,61.37-1.88a79.48,79.48,0,0,0,23.12-5.16c9.84-3.7,18.06-10.26,17.81-22-.21-9.94-2.14-19.86-3.34-30.07-2.38.22-3.65.06-4.69.46a103.21,103.21,0,0,1-42.27,6.72c-17.38-.78-34.73-2.22-52.1-3.23-22.25-1.3-44.53-2.15-66.76-3.8-14-1-28-2.05-41.32-7.3C190.63,430.27,187.25,430,182.48,429Zm12.32-316c4,.3,7.54.67,11.11.84,9.73.45,19.47.81,29.2,1.21,2.45.1,4.89.23,7.33.35,30.18,1.51,60.48,0,90.56,3.8,22.11,2.8,44.33,4.94,65.76,11.59,2.47.77,5.14.9,9,1.54-.87-6.81-2-12.42-2.2-18.05-.31-10.63-5.65-17.09-15.39-20.39-25.89-8.76-51.9-15.18-79.85-12.3A271.3,271.3,0,0,1,239,79.59c-10.07-1.64-20.68-.92-31-.12-8.07.63-10.61,3.79-11.59,11.74C195.57,98.14,195.36,105.15,194.8,113.07Z"/><path class="cls-2" d="M405.38,143.75c0,10.3.11,19.74,0,29.18-.18,11.61-.58,23.21-.88,34.82a26.45,26.45,0,0,0,0,3.67c2.32,19.72,4.61,39.45,7.12,59.15.33,2.65,1.83,5.16,2.79,7.74,5.5,14.84,11.82,29.44,16.31,44.59,5.79,19.51,3.81,39.43-.35,59.08-.77,3.63-2.92,7-4.73,11.11-5-3.71-5.23-8-5.73-12.12-1.47-12.13-3.2-24.25-4.24-36.42-.77-9-5.85-13.55-13.72-16.34-4.75,3.36-5.38,8.45-5.71,13.17-1.72,24.4-3.69,48.83-.21,73.25,1.4,9.83.57,11.86-8.75,15.1a110,110,0,0,1-44.34,5.48c-26.84-1.88-53.56-5-80.57-5.25-17-.15-34.16-2.87-51.07-5.54-8.9-1.41-17.43-5.18-26.69-8.06,1.75-17.35,3.28-34,5.14-50.6,1.38-12.45,3.3-24.84,4.72-37.28.5-4.33-3.34-8.72-8.51-10.53-2.56-.89-5.15-1.71-7.77-2.39-4.24-1.1-6.68-3.81-8.22-7.86-3.37-8.85-7.08-17.56-10.51-26.39a20.78,20.78,0,0,1-1.67-7.12c-.1-15.89,0-31.77.14-47.66,0-1.33.72-2.66,3-4.1.61,3.34,1.54,6.66,1.75,10,.65,10.74,5.38,20,10.28,29.2,2.91,5.45,7.74,7.74,13.7,7.31,5.78-.42,9.74-3.88,10.82-10.7,1.14-7.16,2.09-14.63,1.3-21.76-3.82-34.43-5.64-68.89-4-103.51.1-2.08.52-4.14.81-6.44,11.55-1.54,22.69-2.47,34-.81,4.82.7,9.77.56,14.66.74,15.59.57,31.23,2.14,46.77,1.46,34.33-1.5,67.43,6.31,100.89,11.6a36.88,36.88,0,0,1,5.31,1.43C399.74,141.79,402.31,142.71,405.38,143.75Z"/><path d="M332.48,248.41a39.44,39.44,0,0,1-5,1.65c-4.11.69-8.46.61-12.35,1.92-16.84,5.68-25.09-.91-34.85-12.45-2.25-2.67-3.45-6-.32-9,2.52-2.4,8.09-1.36,10.55,2,1.21,1.69,1.64,3.91,2.65,5.77,1.75,3.23,3.55,6.9,8,6.45,4.87-.49,10-1.43,12.31-6.54,1.38-3,1.57-6.93,6-6.83,4.85.1,7.75,3.3,9.59,7.39C330.39,241.75,331.26,244.93,332.48,248.41Z"/><path d="M297.05,194.18c-9.4,2.51-18.27,4.93-27.19,7.18-1.06.27-2.42-.26-3.55-.67a28.34,28.34,0,0,1-3.56-2c2.24-8,9-9.58,15.32-10.9C285.1,186.37,292,186.83,297.05,194.18Z"/><path d="M342.87,205.32c-2.79.19-6,1.38-8.28.39a114.36,114.36,0,0,1-16.37-9.25c-.7-.46-.4-4,.57-5s3.65-1.38,5-.79c7.14,3,14.15,6.31,19.48,12.08Z"/></svg>